<svg xmlns="http://www.w3.org/2000/svg" viewBox="0 0 161.01 90.66"><defs><style>.cls-1{fill:none;}.cls-2{fill:#fff;}</style></defs><title>Fichier 8</title><g id="Calque_2" data-name="Calque 2"><g id="Calque_1-2" data-name="Calque 1"><path class="cls-1" d="M161,86.54l0-.11,0-.11-6.49-3.38L148,79.57l-6.47-3.37-6.44-3.35c0-.25,0-.49.08-.74l.09-.73c0-.24.05-.49.07-.73s0-.48,0-.72q0-8.27,0-16.54V3.78a8.13,8.13,0,0,0-.17-1.86,2.37,2.37,0,0,0-.59-1.15,2.3,2.3,0,0,0-1.15-.6A7.94,7.94,0,0,0,131.65,0H26.77a7.88,7.88,0,0,0-1.84.17,2.34,2.34,0,0,0-1.14.59,2.28,2.28,0,0,0-.58,1.16A8.07,8.07,0,0,0,23,3.78V36.93q0,8.3,0,16.58V70.09c0,.23,0,.45,0,.68s0,.46.07.69.05.45.08.68.05.46.08.69l-5.8,3.39-5.82,3.41L5.85,83,0,86.46l0,.08,0,.07s33.52.06,70.37.09l90.44.06M1.68,88l0,.12,0,.12c.31.15.61.32.91.48s.62.3.94.42a21.58,21.58,0,0,0,5,1.21,40.42,40.42,0,0,0,5.17.29H146.71c.93,0,1.86,0,2.78-.06s1.86-.11,2.78-.21A23.71,23.71,0,0,0,156,89.7,14.74,14.74,0,0,0,159.83,88H1.68Z"/><path class="cls-2" d="M1.68,88H159.83A14.74,14.74,0,0,1,156,89.7a23.71,23.71,0,0,1-3.77.68c-.92.1-1.85.17-2.78.21s-1.85.06-2.78.06H13.65a40.42,40.42,0,0,1-5.17-.29,21.58,21.58,0,0,1-5-1.21c-.32-.12-.63-.27-.94-.42s-.6-.33-.91-.48l0-.12Z"/><path class="cls-1" d="M130.63,68.36H27.82V4.51H130.63V68.36Z"/><path class="cls-1" d="M26.22,79.14l3.07-2.41c1-.81,2-1.62,3-2.47a5.48,5.48,0,0,1,1.82-1.06,6.38,6.38,0,0,1,2.1-.31q21.94.06,43.9.08L124,73a4.13,4.13,0,0,1,1.17.21,3.8,3.8,0,0,1,1.07.52c1.29.88,2.56,1.8,3.85,2.74l4,3H26.35l-.07-.16Zm34.38-.58H92.07l.07-.25.07-.24c-.25-.1-.51-.24-.76-.36a2.09,2.09,0,0,0-.77-.22c-1.24,0-2.48,0-3.72,0H62.19a3.27,3.27,0,0,0-1.1.08C60.78,77.65,60.57,77.93,60.6,78.56ZM113,76l-.08.22-.09.21c.18.09.36.21.54.31a2.42,2.42,0,0,0,.55.24,2.47,2.47,0,0,0,.61,0l.63,0H129a3,3,0,0,0-.63-.69,1.18,1.18,0,0,0-.7-.28c-2.44,0-4.89,0-7.33,0ZM47,76.56l0-.26L47,76h-7.4c-2.46,0-4.93,0-7.39,0a1.45,1.45,0,0,0-.68.25,6.79,6.79,0,0,1-.67.42c2.53.15,5,.23,7.52.27s5,0,7.42,0a1.67,1.67,0,0,0,.64-.18C46.61,76.76,46.82,76.64,47,76.56Zm-2.32-1.9H34.35a1.57,1.57,0,0,0-.53,0,1.85,1.85,0,0,0-.51.25c-.18.11-.39.25-.66.4a44.64,44.64,0,0,0,7.17.2C42.24,75.43,44.29,75.14,44.72,74.66Zm70.27.42a34.37,34.37,0,0,0,5.93.44c2,0,4.07,0,6.22,0-.65-.47-2.89-.78-5.36-.88A28.77,28.77,0,0,0,115,75.08Zm-13.64,3.2a6.28,6.28,0,0,0-3.6-.85,26.78,26.78,0,0,1-3.8,0c.22.7.87,1.11,2.06,1.25A20.68,20.68,0,0,0,101.35,78.28ZM51.22,78l0,.34,0,.33h3.15c1,0,2.1,0,3.15,0a1.2,1.2,0,0,0,.61-.28c.2-.15.4-.34.6-.47l-.13-.25-.12-.25a17,17,0,0,1-3.71,0A6.81,6.81,0,0,0,51.22,78Zm65.57-4.27a15,15,0,0,0,4,.45c1.37,0,2.74-.14,4.12-.25a13.9,13.9,0,0,0-4-.47C119.55,73.47,118.17,73.61,116.79,73.73ZM34.6,74a22.86,22.86,0,0,0,5.25.3,4.79,4.79,0,0,0,3-.92,35,35,0,0,1-4.22,0A9.94,9.94,0,0,0,34.6,74Zm7.48,3.69a18.77,18.77,0,0,1-3-.2,3.11,3.11,0,0,0-2.75,1,24.62,24.62,0,0,1,3,.18A3.35,3.35,0,0,0,42.08,77.65Zm1.47.82a13.32,13.32,0,0,0,4.19.22,1.91,1.91,0,0,0,1.69-1.32,10.1,10.1,0,0,1-3,0A3.57,3.57,0,0,0,43.55,78.47Zm-14.93,0a14.83,14.83,0,0,0,4.28.2,2.34,2.34,0,0,0,1.83-1.3,15.63,15.63,0,0,1-3.06,0A4.16,4.16,0,0,0,28.62,78.5Zm74.59-.79a3.31,3.31,0,0,0,2.7,1c1,0,1.94-.29,2.9-.28a3.5,3.5,0,0,0-2.7-.89C105.16,77.52,104.17,77.74,103.21,77.71Zm.72-1a4.28,4.28,0,0,0-2.61-.72,20.18,20.18,0,0,1-2.9,0,2.34,2.34,0,0,0,1.71,1A14.52,14.52,0,0,0,103.93,76.72ZM84.5,76.1c.16.52.81.84,1.73,1a9.92,9.92,0,0,0,3.38-.24A1.27,1.27,0,0,0,88.49,76,25.43,25.43,0,0,0,84.5,76.1Zm21.3.33a4.69,4.69,0,0,0,2.62.63c.91,0,1.87-.11,2.85,0a2.93,2.93,0,0,0-2-1A10.17,10.17,0,0,0,105.8,76.43ZM82.51,77v-.6l-2.45-.17c-.81-.05-1.63-.1-2.44-.13,0,0-.11.09-.16.19a.51.51,0,0,0-.07.28,1.14,1.14,0,0,0,.23.27.49.49,0,0,0,.29.14c.76,0,1.52,0,2.29,0Zm-12.36-.37.15.19.15.19h2.08c.7,0,1.39,0,2.09,0a.79.79,0,0,0,.39-.19c.13-.1.26-.22.39-.3l-.33-.3a.5.5,0,0,0-.32-.18c-.65,0-1.29,0-1.94,0s-1.29,0-1.93,0a.63.63,0,0,0-.37.22C70.39,76.42,70.27,76.56,70.15,76.66Zm-1.91-.39A8.85,8.85,0,0,0,65,76a2.42,2.42,0,0,0-1.9.87,10.63,10.63,0,0,0,3.31.23A2.26,2.26,0,0,0,68.24,76.27ZM54,76.35c-.89,0-1.81-.24-2.7-.28a3.38,3.38,0,0,0-2.54.75c.89,0,1.79.17,2.68.19A4,4,0,0,0,54,76.35Zm37.57.22a7.62,7.62,0,0,0,2.55.46c.88,0,1.78,0,2.71,0a2.55,2.55,0,0,0-2-1A7.49,7.49,0,0,0,91.6,76.57Zm-30.46-.12A8.07,8.07,0,0,0,57.7,76c-.92.12-1.52.5-1.55,1.06a12.67,12.67,0,0,1,2.54,0A4,4,0,0,0,61.14,76.45ZM92.52,75.3a3.42,3.42,0,0,0-2.29-.64,6,6,0,0,0-3,.64h5.27Zm-39,0c.83,0,1.66.14,2.48.15A5.37,5.37,0,0,0,58.38,75c-.83,0-1.67-.21-2.5-.27A3.18,3.18,0,0,0,53.49,75.32Zm11.72,0a6.18,6.18,0,0,0-3-.66c-.91,0-1.63.28-1.83.66h4.8Zm20.63,0a4.1,4.1,0,0,0-2.55-.69,4.64,4.64,0,0,0-2.69.69h5.24Zm4.66-1.72a3.74,3.74,0,0,0,2.35.6c.8,0,1.63-.19,2.43-.2a3.34,3.34,0,0,0-2.34-.63C92.13,73.44,91.31,73.63,90.5,73.63Zm-13.09-.12v.57h4.73v-.45a7.6,7.6,0,0,0-2.36-.29C79,73.36,78.2,73.45,77.41,73.51Zm22,1.79A4,4,0,0,0,97,74.68c-.82,0-1.65.21-2.48.3a4.39,4.39,0,0,0,2.41.51C97.71,75.47,98.55,75.33,99.38,75.3Zm8.74-.35a6,6,0,0,0,2.43.56c.82,0,1.65,0,2.48-.05l0-.25,0-.26h-4.95ZM74,74.9l0,.21v.21h4.86V74.9H74Zm-22.4-.08a13.4,13.4,0,0,1-2.52-.13,3.16,3.16,0,0,0-2.42.69,15.25,15.25,0,0,1,2.52.12A3.2,3.2,0,0,0,51.57,74.82Zm58.64-1.2a4.12,4.12,0,0,0,2.39.61c.82,0,1.65-.17,2.47-.22a4,4,0,0,0-2.39-.6C111.86,73.43,111,73.58,110.21,73.62Zm-1.76.33a4.59,4.59,0,0,0-2.35-.52c-.81,0-1.62.14-2.43.21a4.05,4.05,0,0,0,2.34.57C106.82,74.19,107.64,74,108.45,74Zm-11.34-.22a5.58,5.58,0,0,0,2.35.47,16.34,16.34,0,0,0,2.41-.21,3.7,3.7,0,0,0-2.34-.57C98.73,73.46,97.91,73.64,97.11,73.73ZM84,73.43l0,.28,0,.29H88.7l0-.22v-.21a9.35,9.35,0,0,0-2.36-.21C85.58,73.37,84.79,73.43,84,73.43ZM57.69,74c.8.05,1.61.19,2.4.21a4.17,4.17,0,0,0,2.29-.52c-.8-.05-1.61-.22-2.4-.25A3.54,3.54,0,0,0,57.69,74Zm-1.87-.42a16.69,16.69,0,0,1-2.43-.15,3.17,3.17,0,0,0-2.32.63c.8,0,1.62.14,2.43.17A3.35,3.35,0,0,0,55.82,73.57Zm-6.55.05c-.81,0-1.64-.18-2.45-.23a3,3,0,0,0-2.34.7c.81,0,1.63.12,2.44.14A3.61,3.61,0,0,0,49.27,73.62Zm57,1.65a4.27,4.27,0,0,0-2.42-.58,23.61,23.61,0,0,0-2.48.3,4.74,4.74,0,0,0,2.42.5C104.56,75.47,105.39,75.33,106.22,75.27Zm-39.1,0h5.29a6.07,6.07,0,0,0-2.93-.65A3.73,3.73,0,0,0,67.12,75.31Zm3.76-1.44a14.73,14.73,0,0,0,2.35.32,4.58,4.58,0,0,0,2.28-.44,11.14,11.14,0,0,0-2.34-.31A5.89,5.89,0,0,0,70.88,73.87ZM69,74A6.82,6.82,0,0,0,66,73.39a2.15,2.15,0,0,0-1.72.63H69Z"/><path class="cls-1" d="M80.46,86.08H63.73c-1,0-1.54-.09-1.78-.4s-.14-.85.16-1.77c.56-1.75.84-2.62,1.45-3s1.53-.44,3.38-.44H81.19q7.13,0,14.25,0a3.25,3.25,0,0,1,2,.46,3,3,0,0,1,1.09,1.68c.55,1.79.85,2.67.54,3.11s-1.22.43-3.07.43H80.46Z"/><path class="cls-2" d="M96.25,86.58H63.73a5.9,5.9,0,0,1-1.37-.12,1.35,1.35,0,0,1-.82-.49,1.31,1.31,0,0,1-.21-.91,5.69,5.69,0,0,1,.3-1.31c.6-1.84.95-2.8,1.63-3.3s1.71-.53,3.66-.53H84.8c3.55,0,7.11,0,10.64,0a3.75,3.75,0,0,1,2.28.56A3.5,3.5,0,0,1,99,82.4l0,.11,0,.11a16.36,16.36,0,0,1,.58,2.14,1.5,1.5,0,0,1-.2,1.2,1.48,1.48,0,0,1-1,.54A15.11,15.11,0,0,1,96.25,86.58Zm-15.79-1H96c.69,0,1.32,0,1.79,0a1.55,1.55,0,0,0,.87-.18c.08-.11,0-.42-.07-.86s-.28-1-.47-1.6l0-.11,0-.11a2.45,2.45,0,0,0-.88-1.39,2.93,2.93,0,0,0-1.69-.4c-3.53,0-7.09,0-10.64,0H66.94c-1.66,0-2.5,0-3,.41s-.81,1.16-1.32,2.73a6.57,6.57,0,0,0-.25,1,.32.32,0,0,0,.35.47,5.9,5.9,0,0,0,1,.07H80.46Z"/><path class="cls-2" d="M60.6,78.56c0-.63.18-.91.49-1a3.27,3.27,0,0,1,1.1-.08H87c1.24,0,2.48,0,3.72,0a2.09,2.09,0,0,1,.77.22c.25.12.51.26.76.36l-.07.24-.07.25H60.6Z"/><path class="cls-2" d="M113,76h7.34c2.44,0,4.89,0,7.33,0a1.18,1.18,0,0,1,.7.28A3,3,0,0,1,129,77H115.14l-.63,0a2.47,2.47,0,0,1-.61,0,2.42,2.42,0,0,1-.55-.24c-.18-.1-.36-.22-.54-.31l.09-.21Z"/><path class="cls-2" d="M47,76.56c-.22.08-.43.2-.65.29a1.67,1.67,0,0,1-.64.18c-2.47,0-4.94,0-7.42,0s-5-.12-7.52-.27a6.79,6.79,0,0,0,.67-.42,1.45,1.45,0,0,1,.68-.25c2.46,0,4.93,0,7.39,0H47l0,.26Z"/><path class="cls-2" d="M44.72,74.66c-.43.48-2.48.77-4.9.89a44.64,44.64,0,0,1-7.17-.2c.27-.15.48-.29.66-.4a1.85,1.85,0,0,1,.51-.25,1.57,1.57,0,0,1,.53,0H44.72Z"/><path class="cls-2" d="M115,75.08a28.77,28.77,0,0,1,6.79-.42c2.47.1,4.71.41,5.36.88-2.15-.07-4.21,0-6.22,0A34.37,34.37,0,0,1,115,75.08Z"/><path class="cls-2" d="M101.35,78.28a20.68,20.68,0,0,1-5.34.39c-1.19-.14-1.84-.55-2.06-1.25a26.78,26.78,0,0,0,3.8,0A6.28,6.28,0,0,1,101.35,78.28Z"/><path class="cls-2" d="M51.22,78a6.81,6.81,0,0,1,3.63-.59,17,17,0,0,0,3.71,0l.12.25.13.25c-.2.13-.4.32-.6.47a1.2,1.2,0,0,1-.61.28c-1.05,0-2.1,0-3.15,0H51.3l0-.33Z"/><path class="cls-2" d="M116.79,73.73c1.38-.12,2.76-.26,4.12-.27a13.9,13.9,0,0,1,4,.47c-1.38.11-2.75.24-4.12.25A15,15,0,0,1,116.79,73.73Z"/><path class="cls-2" d="M34.6,74a9.94,9.94,0,0,1,4-.6,35,35,0,0,0,4.22,0,4.79,4.79,0,0,1-3,.92A22.86,22.86,0,0,1,34.6,74Z"/><path class="cls-2" d="M42.08,77.65a3.35,3.35,0,0,1-2.76,1,24.62,24.62,0,0,0-3-.18,3.11,3.11,0,0,1,2.75-1A18.77,18.77,0,0,0,42.08,77.65Z"/><path class="cls-2" d="M43.55,78.47a3.57,3.57,0,0,1,2.92-1,10.1,10.1,0,0,0,3,0,1.91,1.91,0,0,1-1.69,1.32A13.32,13.32,0,0,1,43.55,78.47Z"/><path class="cls-2" d="M28.62,78.5a4.16,4.16,0,0,1,3.05-1.08,15.63,15.63,0,0,0,3.06,0,2.34,2.34,0,0,1-1.83,1.3A14.83,14.83,0,0,1,28.62,78.5Z"/><path class="cls-2" d="M103.21,77.71c1,0,2-.19,2.9-.22a3.5,3.5,0,0,1,2.7.89c-1,0-2,.24-2.9.28A3.31,3.31,0,0,1,103.21,77.71Z"/><path class="cls-2" d="M103.93,76.72a14.52,14.52,0,0,1-3.8.29,2.34,2.34,0,0,1-1.71-1,20.18,20.18,0,0,0,2.9,0A4.28,4.28,0,0,1,103.93,76.72Z"/><path class="cls-2" d="M84.5,76.1a25.43,25.43,0,0,1,4-.1,1.27,1.27,0,0,1,1.12.83,9.92,9.92,0,0,1-3.38.24C85.31,76.94,84.66,76.62,84.5,76.1Z"/><path class="cls-2" d="M105.8,76.43a10.17,10.17,0,0,1,3.46-.39,2.93,2.93,0,0,1,2,1c-1-.09-1.94,0-2.85,0A4.69,4.69,0,0,1,105.8,76.43Z"/><path class="cls-2" d="M82.51,77H80.2c-.77,0-1.53,0-2.29,0a.49.49,0,0,1-.29-.14,1.14,1.14,0,0,1-.23-.27.51.51,0,0,1,.07-.28c.05-.1.12-.2.16-.19.81,0,1.63.08,2.44.13l2.45.17V77Z"/><path class="cls-2" d="M70.15,76.66c.12-.1.24-.24.36-.36a.63.63,0,0,1,.37-.22c.64,0,1.29,0,1.93,0s1.29,0,1.94,0a.5.5,0,0,1,.32.18l.33.3c-.13.08-.26.2-.39.3a.79.79,0,0,1-.39.19c-.7,0-1.39,0-2.09,0H70.45l-.15-.19Z"/><path class="cls-2" d="M68.24,76.27a2.26,2.26,0,0,1-1.79.81,10.63,10.63,0,0,1-3.31-.23A2.42,2.42,0,0,1,65,76,8.85,8.85,0,0,1,68.24,76.27Z"/><path class="cls-2" d="M54,76.35a4,4,0,0,1-2.56.66c-.89,0-1.79-.19-2.68-.19a3.38,3.38,0,0,1,2.54-.75C52.22,76.11,53.14,76.33,54,76.35Z"/><path class="cls-2" d="M91.6,76.57A7.49,7.49,0,0,1,94.87,76a2.55,2.55,0,0,1,2,1c-.93,0-1.83,0-2.71,0A7.62,7.62,0,0,1,91.6,76.57Z"/><path class="cls-2" d="M61.14,76.45a4,4,0,0,1-2.45.61,12.67,12.67,0,0,0-2.54,0c0-.56.63-.94,1.55-1.06A8.07,8.07,0,0,1,61.14,76.45Z"/><path class="cls-2" d="M92.52,75.3H87.25a6,6,0,0,1,3-.64A3.42,3.42,0,0,1,92.52,75.3Z"/><path class="cls-2" d="M53.49,75.32a3.18,3.18,0,0,1,2.39-.61c.83.06,1.67.27,2.5.27a5.37,5.37,0,0,1-2.41.49C55.15,75.46,54.32,75.36,53.49,75.32Z"/><path class="cls-2" d="M65.21,75.32h-4.8c.2-.38.92-.63,1.83-.66A6.18,6.18,0,0,1,65.21,75.32Z"/><path class="cls-2" d="M85.84,75.35H80.6a4.64,4.64,0,0,1,2.69-.69A4.1,4.1,0,0,1,85.84,75.35Z"/><path class="cls-2" d="M90.5,73.63c.81,0,1.63-.19,2.44-.23a3.34,3.34,0,0,1,2.34.63c-.8,0-1.63.17-2.43.2A3.74,3.74,0,0,1,90.5,73.63Z"/><path class="cls-2" d="M77.41,73.51c.79-.06,1.58-.15,2.37-.17a7.6,7.6,0,0,1,2.36.29v.45H77.4v-.57Z"/><path class="cls-2" d="M99.38,75.3c-.83,0-1.67.17-2.49.19A4.39,4.39,0,0,1,94.48,75c.83-.09,1.66-.27,2.48-.3A4,4,0,0,1,99.38,75.3Z"/><path class="cls-2" d="M108.12,75h4.95l0,.26,0,.25c-.83,0-1.66.08-2.48.05A6,6,0,0,1,108.12,75Z"/><path class="cls-2" d="M74,74.9h4.88v.42H74v-.21Z"/><path class="cls-2" d="M51.57,74.82a3.2,3.2,0,0,1-2.42.68,15.25,15.25,0,0,0-2.52-.12,3.16,3.16,0,0,1,2.42-.69A13.4,13.4,0,0,0,51.57,74.82Z"/><path class="cls-2" d="M110.21,73.62c.82,0,1.65-.19,2.47-.21a4,4,0,0,1,2.39.6c-.82,0-1.65.2-2.47.22A4.12,4.12,0,0,1,110.21,73.62Z"/><path class="cls-2" d="M108.45,74c-.81.08-1.63.24-2.44.26a4.05,4.05,0,0,1-2.34-.57c.81-.07,1.62-.2,2.43-.21A4.59,4.59,0,0,1,108.45,74Z"/><path class="cls-2" d="M97.11,73.73c.8-.09,1.62-.27,2.42-.31a3.7,3.7,0,0,1,2.34.57,16.34,16.34,0,0,1-2.41.21A5.58,5.58,0,0,1,97.11,73.73Z"/><path class="cls-2" d="M84,73.43c.79,0,1.58-.06,2.37-.07a9.35,9.35,0,0,1,2.36.21v.21l0,.22H83.94l0-.29Z"/><path class="cls-2" d="M57.69,74A3.54,3.54,0,0,1,60,73.43c.79,0,1.6.2,2.4.25a4.17,4.17,0,0,1-2.29.52C59.3,74.18,58.49,74,57.69,74Z"/><path class="cls-2" d="M55.82,73.57a3.35,3.35,0,0,1-2.32.65c-.81,0-1.63-.19-2.43-.17a3.17,3.17,0,0,1,2.32-.63A16.69,16.69,0,0,0,55.82,73.57Z"/><path class="cls-2" d="M49.27,73.62a3.61,3.61,0,0,1-2.35.61c-.81,0-1.63-.18-2.44-.14a3,3,0,0,1,2.34-.7C47.63,73.44,48.46,73.63,49.27,73.62Z"/><path class="cls-2" d="M106.22,75.27c-.83.06-1.66.2-2.48.22a4.74,4.74,0,0,1-2.42-.5,23.61,23.61,0,0,1,2.48-.3A4.27,4.27,0,0,1,106.22,75.27Z"/><path class="cls-2" d="M67.12,75.31a3.73,3.73,0,0,1,2.36-.65,6.07,6.07,0,0,1,2.93.65H67.12Z"/><path class="cls-2" d="M70.88,73.87a5.89,5.89,0,0,1,2.29-.43,11.14,11.14,0,0,1,2.34.31,4.58,4.58,0,0,1-2.28.44A14.73,14.73,0,0,1,70.88,73.87Z"/><path class="cls-2" d="M69,74H64.32A2.15,2.15,0,0,1,66,73.39,6.82,6.82,0,0,1,69,74Z"/><path class="cls-2" d="M135.12,72.85l3.22,1.68,3.22,1.67,3.24,1.68L148,79.57l3.25,1.68,3.24,1.69,3.25,1.69L161,86.32v.05l0,.06,0,0v.06l0,0,0,.06v0l0,.06H.14l0,0,0,0v0l0,0,0,0,0,0v0l0,0,2.92-1.71L5.85,83l2.92-1.71,2.92-1.7,2.91-1.71,2.91-1.7,2.9-1.7,2.9-1.69c0-.11,0-.23,0-.34s0-.23,0-.35,0-.23,0-.34,0-.23,0-.34,0-.23,0-.35l0-.34c0-.11,0-.23,0-.34s0-.23,0-.34V53.51c0-2.76,0-5.52,0-8.29V3.78c0-.38,0-.72,0-1a5.8,5.8,0,0,1,.13-.83,2.84,2.84,0,0,1,.23-.66,1.8,1.8,0,0,1,.35-.5A2,2,0,0,1,24.28.4a2.92,2.92,0,0,1,.65-.23A5.88,5.88,0,0,1,25.75,0c.31,0,.65,0,1,0H131.65c.37,0,.71,0,1,0a6.13,6.13,0,0,1,.82.13,2.75,2.75,0,0,1,.65.24,1.64,1.64,0,0,1,.5.36,1.88,1.88,0,0,1,.36.5,3.53,3.53,0,0,1,.23.65,6.29,6.29,0,0,1,.13.83c0,.31,0,.65,0,1V61.66c0,2.76,0,5.51,0,8.27,0,.12,0,.24,0,.36s0,.24,0,.36l0,.37c0,.12,0,.24,0,.36s0,.24,0,.36,0,.25-.05.37,0,.25,0,.37S135.13,72.73,135.12,72.85Zm-4.49-4.49V4.51H27.82V68.36H130.63ZM26.22,79.14v0l0,0,0,0v0l0,0v0l0,0,0,0h107.8l-1-.76-1-.74-1-.73-1-.72-1-.7-1-.69-1-.68c-.31-.23-.63-.45-1-.67L126,73.6l-.27-.14-.27-.12-.29-.1-.3-.09-.29-.06-.3,0L124,73l-11,0h-11l-11,0h-11l-11,0h-11l-11,0-11,0-.56,0-.54,0-.51.1a3.94,3.94,0,0,0-.49.14,2.72,2.72,0,0,0-.47.19,4,4,0,0,0-.46.23l-.45.29c-.15.11-.29.22-.44.35l-.75.63-.75.62-.76.61-.77.61-.77.6-.77.6-.77.61Zm54.24,6.94H97.17c.35,0,.65,0,.89,0a2.68,2.68,0,0,0,.61-.13.72.72,0,0,0,.35-.25.7.7,0,0,0,.12-.42,2.62,2.62,0,0,0-.07-.63c0-.25-.13-.54-.23-.88s-.22-.73-.36-1.18c-.06-.2-.13-.39-.2-.56a4,4,0,0,0-.25-.46,2.8,2.8,0,0,0-.29-.37,1.93,1.93,0,0,0-.35-.29,1.87,1.87,0,0,0-.39-.22,3.5,3.5,0,0,0-.46-.14,3.89,3.89,0,0,0-.51-.08,5.62,5.62,0,0,0-.59,0H65.72c-.36,0-.67,0-.94,0a4,4,0,0,0-.7.13,1.69,1.69,0,0,0-.52.26,1.57,1.57,0,0,0-.4.41,3.92,3.92,0,0,0-.34.62,9,9,0,0,0-.33.87c-.12.33-.24.71-.38,1.15-.08.23-.14.43-.19.62s-.07.35-.09.49a1.55,1.55,0,0,0,0,.38.63.63,0,0,0,.11.28.8.8,0,0,0,.24.2,1.46,1.46,0,0,0,.37.12,3.41,3.41,0,0,0,.51.06l.66,0H80.46Z"/><path class="cls-2" d="M70.07,42.6H64.31l.72-.72.72-.72.72-.73.72-.72v-23H78.72a16,16,0,0,1,5,.72,8.65,8.65,0,0,1,5.76,5.76,16,16,0,0,1,.72,5,19.12,19.12,0,0,1-.18,2.7,13.37,13.37,0,0,1-.54,2.34,10,10,0,0,1-.9,2,8.37,8.37,0,0,1-1.26,1.62q.3.3.57.63c.18.22.35.44.51.68a7.15,7.15,0,0,1,.44.76,7.49,7.49,0,0,1,.38.81,1.1,1.1,0,0,1,.06.67,1.65,1.65,0,0,1-.33.7,3.8,3.8,0,0,1-.72.74,10.48,10.48,0,0,1-1.11.78h5.76a1.32,1.32,0,0,1-.09.67,2.62,2.62,0,0,1-.48.71,5.53,5.53,0,0,1-.86.73,12,12,0,0,1-1.25.77,16,16,0,0,1-.72,5,8.65,8.65,0,0,1-5.76,5.76,16,16,0,0,1-5,.72H67.19V45.48l.72-.72.72-.72.72-.72Zm0,0h5.77l-.72.72L74.4,44l-.72.72-.72.72v5.76h5.76a8,8,0,0,0,2.52-.36A4.33,4.33,0,0,0,84.12,48a8,8,0,0,0,.36-2.52,13.77,13.77,0,0,0,1.23-.82,5,5,0,0,0,.81-.75,1.84,1.84,0,0,0,.38-.69.93.93,0,0,0,0-.62H81.11a3.33,3.33,0,0,0,.48-1.26,1.19,1.19,0,0,0-.24-.9,1.79,1.79,0,0,0-1-.55,6.5,6.5,0,0,0-1.67-.18H73l-.72.72-.72.73-.73.72ZM84.48,28.19a8,8,0,0,0-.36-2.52,4.33,4.33,0,0,0-2.88-2.88,8,8,0,0,0-2.52-.36H73V34h5.76a8,8,0,0,0,2.52-.36,4.33,4.33,0,0,0,2.88-2.88A8,8,0,0,0,84.48,28.19Z"/></g></g></svg>